<svg width="33" height="32" viewBox="0 0 33 32" fill="none" xmlns="http://www.w3.org/2000/svg">
<path fill-rule="evenodd" clip-rule="evenodd" d="M7.15094 10.6661C7.15094 8.5797 8.6283 7.11055 10.7264 7.11055C12.8244 7.11055 14.3018 8.5797 14.3018 10.6661C14.3018 12.5251 13.1752 13.848 11.3968 14.163V17.8359C13.1752 18.1509 14.3018 19.4738 14.3018 21.3328C14.3018 23.4192 12.8244 24.8883 10.7264 24.8883C8.6283 24.8883 7.15094 23.4192 7.15094 21.3328C7.15094 19.4738 8.27756 18.1509 10.056 17.8359V14.163C8.27756 13.848 7.15094 12.5251 7.15094 10.6661ZM10.7264 8.22166C9.36879 8.22166 8.26826 9.31608 8.26826 10.6661C8.26826 11.7849 9.02427 12.7285 10.056 13.0186V11.2887C10.056 10.5766 10.6332 9.99944 11.3452 9.99944C11.3737 9.99944 11.3968 10.0225 11.3968 10.051V13.0186C12.4285 12.7285 13.1845 11.7849 13.1845 10.6661C13.1845 9.31608 12.0839 8.22166 10.7264 8.22166ZM10.056 18.9803C9.02427 19.2704 8.26826 20.214 8.26826 21.3328C8.26826 22.6828 9.36879 23.7772 10.7264 23.7772C12.0839 23.7772 13.1845 22.6828 13.1845 21.3328C13.1845 20.214 12.4285 19.2704 11.3968 18.9803V21.9479C11.3968 21.9764 11.3737 21.9994 11.3452 21.9994C10.6332 21.9994 10.056 21.4222 10.056 20.7102V18.9803Z" fill="#1F1E2C"/>
<path fill-rule="evenodd" clip-rule="evenodd" d="M17.8772 10.6661C17.8772 8.5797 19.3546 7.11055 21.4526 7.11055C23.5507 7.11055 25.028 8.5797 25.028 10.6661C25.028 12.5251 23.9014 13.848 22.123 14.163V17.8359C23.9014 18.1509 25.028 19.4738 25.028 21.3328C25.028 23.4192 23.5507 24.8883 21.4526 24.8883C19.3546 24.8883 17.8772 23.4192 17.8772 21.3328C17.8772 19.4738 19.0038 18.1509 20.7822 17.8359L20.7822 14.163C19.0038 13.848 17.8772 12.5251 17.8772 10.6661ZM21.4526 8.22166C20.095 8.22166 18.9945 9.31608 18.9945 10.6661C18.9945 11.7849 19.7505 12.7285 20.7822 13.0186V10.051C20.7822 10.0225 20.8053 9.99944 20.8338 9.99944C21.5458 9.99944 22.123 10.5766 22.123 11.2887V13.0186C23.1547 12.7285 23.9107 11.7849 23.9107 10.6661C23.9107 9.31608 22.8102 8.22166 21.4526 8.22166ZM20.7822 18.9803C19.7505 19.2704 18.9945 20.214 18.9945 21.3328C18.9945 22.6828 20.095 23.7772 21.4526 23.7772C22.8102 23.7772 23.9107 22.6828 23.9107 21.3328C23.9107 20.214 23.1547 19.2704 22.123 18.9803V20.7102C22.123 21.4222 21.5458 21.9994 20.8338 21.9994C20.8053 21.9994 20.7822 21.9764 20.7822 21.9479V18.9803Z" fill="#1F1E2C"/>
<path fill-rule="evenodd" clip-rule="evenodd" d="M32.1788 16C32.1788 24.8366 24.9753 32 16.0894 32C7.20346 32 0 24.8366 0 16C0 7.16344 7.20346 0 16.0894 0C24.9753 0 32.1788 7.16344 32.1788 16ZM30.838 16C30.838 24.1738 24.3089 30.6667 16.0894 30.6667C7.86991 30.6667 1.34078 24.1738 1.34078 16C1.34078 7.82619 7.86991 1.33333 16.0894 1.33333C24.3089 1.33333 30.838 7.82619 30.838 16Z" fill="#1F1E2C"/>
</svg>
